<?xml version="1.0" encoding="UTF-8" standalone="no"?>
<!-- Created with Inkscape (http://www.inkscape.org/) -->

<svg
   xmlns:dc="http://purl.org/dc/elements/1.1/"
   xmlns:cc="http://creativecommons.org/ns#"
   xmlns:rdf="http://www.w3.org/1999/02/22-rdf-syntax-ns#"
   xmlns:svg="http://www.w3.org/2000/svg"
   xmlns="http://www.w3.org/2000/svg"
   xmlns:sodipodi="http://sodipodi.sourceforge.net/DTD/sodipodi-0.dtd"
   xmlns:inkscape="http://www.inkscape.org/namespaces/inkscape"
   width="8.2677164in"
   height="11.692913in"
   viewBox="0 0 210 297"
   version="1.1"
   id="svg8"
   inkscape:version="0.92.2 5c3e80d, 2017-08-06"
   sodipodi:docname="panaplex-glowforgeable-with-base.svg">
  <defs
     id="defs2" />
  <sodipodi:namedview
     id="base"
     pagecolor="#ffffff"
     bordercolor="#666666"
     borderopacity="1.0"
     inkscape:pageopacity="0.0"
     inkscape:pageshadow="2"
     inkscape:zoom="1.024917"
     inkscape:cx="59.522669"
     inkscape:cy="585.55363"
     inkscape:document-units="in"
     inkscape:current-layer="layer1"
     showgrid="true"
     inkscape:window-width="2560"
     inkscape:window-height="1395"
     inkscape:window-x="1680"
     inkscape:window-y="1"
     inkscape:window-maximized="1"
     units="in">
    <inkscape:grid
       type="xygrid"
       id="grid10"
       units="in"
       spacingx="2.54"
       spacingy="2.54"
       empspacing="10" />
  </sodipodi:namedview>
  <metadata
     id="metadata5">
    <rdf:RDF>
      <cc:Work
         rdf:about="">
        <dc:format>image/svg+xml</dc:format>
        <dc:type
           rdf:resource="http://purl.org/dc/dcmitype/StillImage" />
        <dc:title></dc:title>
      </cc:Work>
    </rdf:RDF>
  </metadata>
  <g
     inkscape:label="Layer 1"
     inkscape:groupmode="layer"
     id="layer1">
    <path
       style="opacity:1;fill:#803300;fill-opacity:1;fill-rule:nonzero;stroke:none;stroke-width:0.1778;stroke-linecap:square;stroke-linejoin:miter;stroke-miterlimit:4;stroke-dasharray:none;stroke-dashoffset:0;stroke-opacity:1;paint-order:fill markers stroke"
       d="m 155.575,87.449994 a 3.175,3.175 0 0 0 -3.175,3.175 3.175,3.175 0 0 0 3.175,3.174998 3.175,3.175 0 0 0 3.175,-3.174998 3.175,3.175 0 0 0 -3.175,-3.175 z m 0,2.38745 a 0.78739999,0.78739999 0 0 1 0.78755,0.78755 0.78739999,0.78739999 0 0 1 -0.78755,0.78755 0.78739999,0.78739999 0 0 1 -0.78755,-0.78755 0.78739999,0.78739999 0 0 1 0.78755,-0.78755 z"
       id="path841"
       inkscape:connector-curvature="0" />
    <path
       style="opacity:1;fill:#917c6f;fill-opacity:1;fill-rule:nonzero;stroke:none;stroke-width:0.26458332;stroke-linecap:square;stroke-linejoin:miter;stroke-miterlimit:4;stroke-dasharray:none;stroke-dashoffset:0;stroke-opacity:1"
       d="m 63.500102,145.92119 v 0.0506 5.02916 H 5.079896 v 23.46936 H 2.54 v 15.84968 h 2.59054 63.5 v -7.67085 h 5.080309 v 7.67085 h 63.500001 2.59054 v -15.84968 h -2.5399 v -23.46932 h -48.2601 v -5.0798 z"
       id="rect220"
       inkscape:connector-curvature="0" />
    <path
       inkscape:connector-curvature="0"
       id="path863"
       d="m 165.735,87.449994 a 3.175,3.175 0 0 0 -3.175,3.175 3.175,3.175 0 0 0 3.175,3.174998 3.175,3.175 0 0 0 3.175,-3.174998 3.175,3.175 0 0 0 -3.175,-3.175 z m 0,2.38745 a 0.78739999,0.78739999 0 0 1 0.78755,0.78755 0.78739999,0.78739999 0 0 1 -0.78755,0.78755 0.78739999,0.78739999 0 0 1 -0.78755,-0.78755 0.78739999,0.78739999 0 0 1 0.78755,-0.78755 z"
       style="opacity:1;fill:#803300;fill-opacity:1;fill-rule:nonzero;stroke:none;stroke-width:0.1778;stroke-linecap:square;stroke-linejoin:miter;stroke-miterlimit:4;stroke-dasharray:none;stroke-dashoffset:0;stroke-opacity:1;paint-order:fill markers stroke" />
    <path
       style="opacity:1;fill:#803300;fill-opacity:1;fill-rule:nonzero;stroke:none;stroke-width:0.1778;stroke-linecap:square;stroke-linejoin:miter;stroke-miterlimit:4;stroke-dasharray:none;stroke-dashoffset:0;stroke-opacity:1;paint-order:fill markers stroke"
       d="m 175.895,87.449994 a 3.175,3.175 0 0 0 -3.175,3.175 3.175,3.175 0 0 0 3.175,3.174998 3.175,3.175 0 0 0 3.175,-3.174998 3.175,3.175 0 0 0 -3.175,-3.175 z m 0,2.38745 a 0.78739999,0.78739999 0 0 1 0.78755,0.78755 0.78739999,0.78739999 0 0 1 -0.78755,0.78755 0.78739999,0.78739999 0 0 1 -0.78755,-0.78755 0.78739999,0.78739999 0 0 1 0.78755,-0.78755 z"
       id="path865"
       inkscape:connector-curvature="0" />
    <path
       inkscape:connector-curvature="0"
       id="path867"
       d="m 186.055,87.449994 a 3.175,3.175 0 0 0 -3.175,3.175 3.175,3.175 0 0 0 3.175,3.174998 3.175,3.175 0 0 0 3.175,-3.174998 3.175,3.175 0 0 0 -3.175,-3.175 z m 0,2.38745 a 0.78739999,0.78739999 0 0 1 0.78755,0.78755 0.78739999,0.78739999 0 0 1 -0.78755,0.78755 0.78739999,0.78739999 0 0 1 -0.78755,-0.78755 0.78739999,0.78739999 0 0 1 0.78755,-0.78755 z"
       style="opacity:1;fill:#803300;fill-opacity:1;fill-rule:nonzero;stroke:none;stroke-width:0.1778;stroke-linecap:square;stroke-linejoin:miter;stroke-miterlimit:4;stroke-dasharray:none;stroke-dashoffset:0;stroke-opacity:1;paint-order:fill markers stroke" />
    <circle
       style="opacity:1;fill:#000080;fill-opacity:1;fill-rule:nonzero;stroke:none;stroke-width:0.1778;stroke-linecap:square;stroke-linejoin:miter;stroke-miterlimit:4;stroke-dasharray:none;stroke-dashoffset:0;stroke-opacity:1;paint-order:fill markers stroke"
       id="path135"
       cx="33.070751"
       cy="162.32932"
       r="3.175" />
    <circle
       r="3.175"
       cy="176.04532"
       cx="55.930744"
       id="circle137"
       style="opacity:1;fill:#000080;fill-opacity:1;fill-rule:nonzero;stroke:none;stroke-width:0.1778;stroke-linecap:square;stroke-linejoin:miter;stroke-miterlimit:4;stroke-dasharray:none;stroke-dashoffset:0;stroke-opacity:1;paint-order:fill markers stroke" />
    <circle
       style="opacity:1;fill:#000080;fill-opacity:1;fill-rule:nonzero;stroke:none;stroke-width:0.1778;stroke-linecap:square;stroke-linejoin:miter;stroke-miterlimit:4;stroke-dasharray:none;stroke-dashoffset:0;stroke-opacity:1;paint-order:fill markers stroke"
       id="circle139"
       cx="78.028725"
       cy="178.33133"
       r="3.175" />
    <circle
       r="3.175"
       cy="162.32932"
       cx="109.27074"
       id="circle141"
       style="opacity:1;fill:#000080;fill-opacity:1;fill-rule:nonzero;stroke:none;stroke-width:0.1778;stroke-linecap:square;stroke-linejoin:miter;stroke-miterlimit:4;stroke-dasharray:none;stroke-dashoffset:0;stroke-opacity:1;paint-order:fill markers stroke" />
    <path
       inkscape:connector-curvature="0"
       style="opacity:1;fill:#d4aa00;fill-opacity:1;fill-rule:nonzero;stroke:none;stroke-width:0.26458332;stroke-linecap:square;stroke-linejoin:miter;stroke-miterlimit:4;stroke-dasharray:none;stroke-dashoffset:0;stroke-opacity:1"
       d="m 2.54,46.428821 v 0.06356 2.535761 h 3.30212 v 0.76636 1.578716 H 2.54 v 2.599841 h 3.30212 v 2.345076 H 2.54 v 2.599325 h 3.30212 v 2.345076 H 2.54 v 2.599325 h 3.30212 v 2.345081 H 2.54 v 2.59932 h 3.30212 v 2.34508 H 2.54 v 2.59984 h 3.30212 v 2.34508 H 2.54 v 2.59932 h 3.30212 v 1.57871 0.76637 H 2.54 v 2.59932 h 3.36568 3.11144 v -3.30212 h 2.35386 v 3.30213 h 2.59933 v -3.30213 h 2.34508 v 3.30213 h 2.59932 v -3.30213 h 2.34508 v 3.30213 h 2.59932 v -3.30213 h 2.34508 v 3.30213 h 2.59932 v -3.30213 h 2.34559 v 3.30213 h 2.59933 v -3.30213 h 2.34508 v 3.30213 h 2.59932 v -3.30213 h 2.34508 v 3.30213 h 2.59932 v -3.30213 h 2.34508 v 3.30213 h 2.59932 v -3.30213 h 2.34559 v 3.30213 h 2.59932 v -3.30213 h 2.34508 v 3.30213 h 2.59933 v -3.30213 h 2.34507 v 3.30213 h 2.59933 v -3.30213 h 2.34507 v 3.30213 h 2.59933 v -3.30213 h 2.31562 v -4.38164 a 3.81,3.81 0 0 1 3.8101,-3.81011 3.81,3.81 0 0 1 3.81011,3.81011 v 4.38164 h 2.29856 v 3.30213 h 2.59933 v -3.30213 h 2.34508 v 3.30213 h 2.59932 v -3.30213 h 2.34559 v 3.30213 h 2.59933 v -3.30213 h 2.34507 v 3.30213 h 2.59933 v -3.30213 h 2.34508 v 3.30213 h 2.59932 v -3.30213 h 2.34508 v 3.30213 h 2.59932 v -3.30213 h 2.34559 v 3.30213 h 2.59933 v -3.30213 h 2.34507 v 3.30213 h 2.59933 v -3.30213 h 2.34508 v 3.30213 h 2.59932 v -3.30213 h 2.34508 v 3.30213 h 2.59984 v -3.30213 h 2.34508 v 3.30213 h 2.59932 v -3.30213 h 2.34508 v 3.30213 h 2.59932 v -3.30213 h 2.34508 v 3.30213 h 3.13727 3.36517 v -2.59933 h -3.30161 v -0.76636 -1.57871 h 3.30161 v -2.59933 h -3.30161 v -2.34508 h 3.30161 v -2.59984 h -3.30161 v -2.34508 h 3.30161 v -2.59932 h -3.30161 v -2.345077 h 3.30161 V 61.26254 h -3.30161 v -2.345076 h 3.30161 v -2.599325 h -3.30161 v -2.345076 h 3.30161 v -2.599841 h -3.30161 v -1.578716 -0.76636 h 3.30161 v -2.599325 h -3.36517 -3.13727 v 3.302124 h -2.34508 v -3.302124 h -2.59932 v 3.302124 h -2.34508 v -3.302124 h -2.59932 v 3.302124 h -2.34508 v -3.302124 h -2.59984 v 3.302124 h -2.34508 v -3.302124 h -2.59932 v 3.302124 h -2.34508 v -3.302124 h -2.59933 v 3.302124 h -2.34507 v -3.302124 h -2.59933 v 3.302124 h -2.34559 v -3.302124 h -2.59932 v 3.302124 h -2.34508 v -3.302124 h -2.59932 v 3.302124 h -2.34508 v -3.302124 h -2.59933 v 3.302124 h -2.34507 v -3.302124 h -2.59933 v 3.302124 h -2.34559 v -3.302124 h -2.59932 v 3.302124 h -2.34508 v -3.302124 h -2.59933 v 3.302124 h -2.34507 v -3.302124 h -2.59933 v 3.302124 h -2.34507 v -3.302124 h -2.59933 v 3.302124 h -2.34559 v -3.302124 h -2.59933 v 3.302124 h -2.34507 v -3.302124 h -2.59933 v 3.302124 h -2.34507 v -3.302124 h -2.59933 v 3.302124 h -2.34508 v -3.302124 h -2.59932 v 3.302124 h -2.34559 v -3.302124 h -2.59932 v 3.302124 h -2.34508 v -3.302124 h -2.59932 v 3.302124 h -2.34508 v -3.302124 h -2.59932 v 3.302124 H 33.74843 V 46.428821 H 31.1491 v 3.302124 h -2.34559 v -3.302124 h -2.59932 v 3.302124 h -2.34508 v -3.302124 h -2.59932 v 3.302124 h -2.34508 v -3.302124 h -2.59932 v 3.302124 h -2.34508 v -3.302124 h -2.59933 v 3.302124 H 9.01712 V 46.428821 H 5.90568 Z"
       id="rect980" />
    <path
       inkscape:connector-curvature="0"
       style="opacity:1;fill:#c87137;fill-opacity:1;fill-rule:nonzero;stroke:none;stroke-width:0.20320001;stroke-linecap:square;stroke-linejoin:miter;stroke-miterlimit:4;stroke-dasharray:none;stroke-dashoffset:0;stroke-opacity:1;paint-order:fill markers stroke"
       d="m 153.16161,5.7887938 v 0.0636 2.41742 H 149.86 v 2.5993202 h 3.30161 v 2.34508 H 149.86 v 2.59933 h 3.30161 v 2.34507 H 149.86 v 2.599838 h 3.30161 v 2.34508 H 149.86 v 2.59932 h 3.30161 v 2.34508 H 149.86 v 2.59932 h 3.30161 v 2.34508 H 149.86 v 2.59933 h 3.30161 v 2.34559 H 149.86 v 2.59933 h 3.30161 v 2.46341 h 2.59984 v -3.30161 h 2.34508 v 3.30161 h 2.59932 v -3.30161 h 2.34508 v 3.30161 h 2.59933 v -3.30161 h 2.34507 v 3.30161 h 2.59933 v -3.30161 h 2.34507 v 3.30161 h 2.59984 v -3.30161 h 2.34508 v 3.30161 h 2.59932 v -3.30161 h 2.34508 v 3.30161 h 2.59933 v -3.30161 h 2.34507 v 3.30161 h 2.59933 v -3.30161 h 2.34507 v 3.30161 h 2.59984 v -3.30161 h 2.34508 v 3.30161 h 2.59933 v -3.30161 h 2.34507 v 3.30161 h 2.59933 v -2.4722 h 3.30212 v -2.59933 h -3.30212 v -2.34507 h 3.30212 v -2.59933 h -3.30212 v -2.34507 h 3.30212 v -2.59933 h -3.30212 v -2.34507 h 3.30212 v -2.59985 h -3.30212 v -2.34507 h 3.30212 v -2.599328 h -3.30212 v -2.34507 h 3.30212 v -2.59933 h -3.30212 v -2.34507 h 3.30212 V 8.2615438 h -3.30212 v -2.47271 h -2.59933 V 9.0909537 H 200.2621 V 5.7888338 h -2.59933 v 3.3021199 h -2.34508 V 5.7888338 h -2.59984 v 3.3021199 h -2.34507 V 5.7888338 h -2.59933 v 3.3021199 h -2.34507 V 5.7888338 h -2.59933 v 3.3021199 h -2.34508 V 5.7888338 h -2.59932 v 3.3021199 h -2.34508 V 5.7888338 h -2.59984 v 3.3021199 h -2.34507 V 5.7888338 h -2.59933 v 3.3021199 h -2.34507 V 5.7888338 h -2.59933 v 3.3021199 h -2.34508 V 5.7888338 h -2.59932 v 3.3021199 h -2.34508 V 5.7888338 Z"
       id="rect130" />
    <path
       inkscape:connector-curvature="0"
       style="opacity:1;fill:#ff9955;fill-opacity:1;fill-rule:nonzero;stroke:none;stroke-width:0.26458332;stroke-linecap:square;stroke-linejoin:miter;stroke-miterlimit:4;stroke-dasharray:none;stroke-dashoffset:0;stroke-opacity:1"
       d="m 5.84161,86.712944 v 0.0636 2.40864 H 2.54 v 2.59984 h 3.30161 v 2.34507 H 2.54 v 2.59933 h 3.30161 v 2.34507 H 2.54 v 2.599326 h 3.30161 v 2.34507 H 2.54 v 2.59933 h 3.30161 v 2.34508 H 2.54 v 2.59984 h 3.30161 v 2.34507 H 2.54 v 2.59933 h 3.30161 v 2.34507 H 2.54 v 2.59933 h 3.30161 v 2.34507 H 2.54 v 2.59933 h 3.30161 v 2.34559 H 2.54 v 2.59933 h 3.30161 v 2.34508 H 2.54 v 2.59932 h 3.30161 v 2.4722 H 8.89 v 3.30213 h 2.59933 v -3.30213 h 2.34508 v 3.30213 h 2.59932 v -3.30213 h 2.34508 v 3.30213 h 2.59932 v -3.30213 h 2.34508 v 3.30213 h 2.59984 v -3.30213 h 2.34507 v 3.30213 h 2.59933 v -3.30213 h 2.34508 v 3.30213 h 2.59932 v -3.30213 h 2.34508 v 3.30213 h 2.59932 v -3.30213 h 2.34507 v 3.30213 h 2.59984 v -3.30213 h 2.34508 v 3.30213 h 2.59933 v -3.30213 h 2.34507 v 3.30213 h 2.59933 v -3.30213 h 2.34508 v 3.30213 h 2.59932 v -3.30213 h 2.34508 v 3.30213 h 2.59984 v -3.30213 h 2.34507 v 3.30213 h 2.59933 v -3.30213 h 2.34507 v 3.30213 h 2.59933 v -3.30213 h 2.34508 v 3.30213 h 2.59932 v -3.30213 h 2.34508 v 3.30213 h 2.59984 v -3.30213 h 2.34507 v 3.30213 h 2.59933 v -3.30213 h 2.345074 v 3.30213 h 2.59933 v -3.30213 h 2.34508 v 3.30213 h 2.599316 v -3.30213 h 2.34559 v 3.30213 h 2.59933 v -3.30213 h 2.34507 v 3.30213 h 2.59933 v -3.30213 h 2.34507 v 3.30213 h 2.59933 v -3.30213 h 2.34508 v 3.30213 h 2.59932 v -3.30213 h 2.3456 v 3.30213 h 2.59932 v -3.30213 h 2.34508 v 3.30213 h 2.59932 v -3.30213 h 2.34508 v 3.30213 h 2.59932 v -3.30213 h 2.34508 v 3.30213 h 2.59932 v -3.30213 h 3.08198 v -2.4722 h 3.30213 v -2.59932 h -3.30213 v -2.34508 h 3.30213 v -2.59984 h -3.30213 v -2.34508 h 3.30213 v -2.59933 h -3.30213 v -2.34507 h 3.30213 v -2.59933 h -3.30213 v -2.34507 h 3.30213 v -2.59933 h -3.30213 v -2.34507 h 3.30213 v -2.59984 h -3.30213 v -2.34508 h 3.30213 v -2.59933 h -3.30213 v -2.34507 h 3.30213 v -2.599326 h -3.30213 v -2.34507 h 3.30213 v -2.59933 h -3.30213 v -2.34507 h 3.30213 v -2.59984 h -3.30213 v -2.47221 z"
       id="rect1050" />
    <g
       transform="translate(-48.19644,-10.223535)"
       aria-label="matthew sarnoff"
       style="font-style:normal;font-variant:normal;font-weight:500;font-stretch:normal;font-size:4.23333311px;line-height:125%;font-family:'Microgramma D Extended';-inkscape-font-specification:'Microgramma D Extended Medium';letter-spacing:0px;word-spacing:0px;fill:#000000;fill-opacity:1;stroke:none;stroke-width:0.26458332px;stroke-linecap:butt;stroke-linejoin:miter;stroke-opacity:1"
       id="text199">
      <path
         inkscape:connector-curvature="0"
         d="m 57.096743,86.767346 v 1.960033 h 0.309034 v -0.770467 c 0,-0.486833 0.0254,-0.656166 0.122766,-0.766233 0.1143,-0.127 0.309034,-0.1778 0.702734,-0.1778 0.3683,0 0.5588,0.04233 0.668866,0.143933 0.08043,0.08043 0.105834,0.186267 0.105834,0.4699 v 1.100667 h 0.309033 v -0.770467 c 0,-0.478366 0.02963,-0.643466 0.1397,-0.770466 0.105833,-0.127 0.2921,-0.173567 0.6858,-0.173567 0.6477,0 0.770467,0.09737 0.770467,0.613833 v 1.100667 h 0.309033 v -1.032933 c 0,-0.4572 -0.0254,-0.5715 -0.1524,-0.715434 -0.1651,-0.1778 -0.389467,-0.237066 -0.922867,-0.237066 -0.563033,0 -0.7874,0.08467 -0.9144,0.3429 -0.156633,-0.2667 -0.376766,-0.3429 -1.016,-0.3429 -0.478366,0 -0.6096,0.04657 -0.804333,0.283633 v -0.258233 z"
         style="font-style:normal;font-variant:normal;font-weight:500;font-stretch:normal;font-family:'Microgramma D Extended';-inkscape-font-specification:'Microgramma D Extended Medium';stroke-width:0.26458332px"
         id="path215" />
      <path
         inkscape:connector-curvature="0"
         d="m 61.88795,87.355779 v -0.0254 c 0.0042,-0.270933 0.122767,-0.3175 0.795867,-0.3175 0.512233,0 0.690033,0.0381 0.8001,0.173567 0.07197,0.08467 0.09313,0.169333 0.09313,0.372533 v 0.211667 h -0.0254 c -0.135466,-0.186267 -0.270933,-0.211667 -1.075266,-0.211667 -0.414867,0 -0.601134,0.01693 -0.719667,0.0635 -0.2032,0.0762 -0.2794,0.2286 -0.2794,0.537633 0,0.237067 0.04233,0.3556 0.169333,0.4572 0.143934,0.110067 0.3302,0.135467 1.032934,0.135467 0.5969,0 0.740833,-0.04233 0.889,-0.254 h 0.0127 l -0.0042,0.2286 h 0.309034 v -1.032933 c 0,-0.465667 -0.02963,-0.5969 -0.1651,-0.732367 -0.1651,-0.173567 -0.3937,-0.220133 -1.058334,-0.220133 -0.8509,0 -1.100666,0.118533 -1.100666,0.529166 v 0.08467 z m 0.791634,0.478367 c 0.690033,0 0.8763,0.06773 0.8763,0.321733 0,0.262467 -0.156634,0.325967 -0.8128,0.325967 -0.4826,0 -0.694267,-0.0127 -0.783167,-0.0508 -0.110067,-0.04657 -0.1524,-0.122767 -0.1524,-0.2667 0,-0.127 0.0381,-0.211667 0.1143,-0.262467 0.0889,-0.05503 0.237067,-0.06773 0.757767,-0.06773 z"
         style="font-style:normal;font-variant:normal;font-weight:500;font-stretch:normal;font-family:'Microgramma D Extended';-inkscape-font-specification:'Microgramma D Extended Medium';stroke-width:0.26458332px"
         id="path217" />
      <path
         inkscape:connector-curvature="0"
         d="m 64.516255,86.280512 v 0.486834 h -0.4826 v 0.2667 h 0.4826 v 0.948266 c 0,0.309034 0.0254,0.4318 0.110067,0.550334 0.1143,0.156633 0.338667,0.220133 0.757767,0.220133 0.414866,0 0.626533,-0.06773 0.740833,-0.2413 0.08043,-0.118533 0.105833,-0.245533 0.105833,-0.550333 v -0.122767 h -0.309033 v 0.122767 c 0,0.2413 -0.0127,0.313266 -0.05927,0.385233 -0.06773,0.105833 -0.173567,0.135467 -0.448733,0.135467 -0.296333,0 -0.436033,-0.0381 -0.516467,-0.135467 -0.0635,-0.08043 -0.0635,-0.09313 -0.07197,-0.465667 v -0.846666 h 1.371599 v -0.2667 h -1.371599 v -0.486834 z"
         style="font-style:normal;font-variant:normal;font-weight:500;font-stretch:normal;font-family:'Microgramma D Extended';-inkscape-font-specification:'Microgramma D Extended Medium';stroke-width:0.26458332px"
         id="path219" />
      <path
         inkscape:connector-curvature="0"
         d="m 66.756945,86.280512 v 0.486834 h -0.4826 v 0.2667 h 0.4826 v 0.948266 c 0,0.309034 0.0254,0.4318 0.110066,0.550334 0.1143,0.156633 0.338667,0.220133 0.757767,0.220133 0.414866,0 0.626533,-0.06773 0.740833,-0.2413 0.08043,-0.118533 0.105833,-0.245533 0.105833,-0.550333 v -0.122767 h -0.309033 v 0.122767 c 0,0.2413 -0.0127,0.313266 -0.05927,0.385233 -0.06773,0.105833 -0.173566,0.135467 -0.448733,0.135467 -0.296333,0 -0.436033,-0.0381 -0.516467,-0.135467 -0.0635,-0.08043 -0.0635,-0.09313 -0.07197,-0.465667 v -0.846666 h 1.3716 v -0.2667 h -1.3716 v -0.486834 z"
         style="font-style:normal;font-variant:normal;font-weight:500;font-stretch:normal;font-family:'Microgramma D Extended';-inkscape-font-specification:'Microgramma D Extended Medium';stroke-width:0.26458332px"
         id="path221" />
      <path
         inkscape:connector-curvature="0"
         d="m 68.742842,85.903746 v 2.823633 h 0.309033 v -0.922867 c 0,-0.372533 0.01693,-0.461433 0.122766,-0.579966 0.131234,-0.1524 0.381,-0.2159 0.859367,-0.2159 0.423333,0 0.618067,0.04657 0.719667,0.169333 0.09313,0.1143 0.110066,0.220133 0.110066,0.626533 v 0.922867 h 0.309034 v -1.020233 c 0,-0.465667 -0.03387,-0.618067 -0.1651,-0.753534 -0.1524,-0.160866 -0.3937,-0.2159 -0.935567,-0.2159 -0.639233,0 -0.8636,0.07197 -0.994833,0.3175 h -0.0254 v -1.151466 z"
         style="font-style:normal;font-variant:normal;font-weight:500;font-stretch:normal;font-family:'Microgramma D Extended';-inkscape-font-specification:'Microgramma D Extended Medium';stroke-width:0.26458332px"
         id="path223" />
      <path
         inkscape:connector-curvature="0"
         d="m 73.646298,88.122012 c -0.0127,0.127 -0.02117,0.160867 -0.07197,0.211667 -0.1016,0.1143 -0.275166,0.148167 -0.719666,0.148167 -0.588434,0 -0.8001,-0.0381 -0.918634,-0.160867 -0.09313,-0.09737 -0.135466,-0.249767 -0.143933,-0.503767 h 2.1844 c -0.0085,-0.465666 -0.0508,-0.643466 -0.198967,-0.817033 -0.182033,-0.2032 -0.414866,-0.258233 -1.0922,-0.258233 -0.474133,0 -0.6985,0.02963 -0.859366,0.118533 -0.254,0.1397 -0.3683,0.414867 -0.3683,0.893233 0,0.402167 0.09313,0.6731 0.2794,0.817034 0.173566,0.135466 0.474133,0.182033 1.151466,0.182033 0.795867,0 1.071033,-0.160867 1.083733,-0.630767 z m -1.845733,-0.5715 c 0.03387,-0.436033 0.198966,-0.537633 0.8763,-0.537633 0.762,0 0.9525,0.105833 0.956733,0.537633 z"
         style="font-style:normal;font-variant:normal;font-weight:500;font-stretch:normal;font-family:'Microgramma D Extended';-inkscape-font-specification:'Microgramma D Extended Medium';stroke-width:0.26458332px"
         id="path225" />
      <path
         inkscape:connector-curvature="0"
         d="m 74.004146,86.767346 0.905933,1.960033 h 0.4572 l 0.5969,-1.667933 h 0.02963 l 0.605366,1.667933 h 0.461433 l 0.910167,-1.960033 h -0.359833 l -0.753534,1.6764 h -0.03387 l -0.601133,-1.6764 h -0.486834 l -0.592666,1.6764 h -0.02963 l -0.762,-1.6764 z"
         style="font-style:normal;font-variant:normal;font-weight:500;font-stretch:normal;font-family:'Microgramma D Extended';-inkscape-font-specification:'Microgramma D Extended Medium';stroke-width:0.26458332px"
         id="path227" />
      <path
         inkscape:connector-curvature="0"
         d="m 79.084809,88.045812 v 0.1016 c 0,0.2413 0.04657,0.364067 0.182033,0.461434 0.148167,0.110066 0.414867,0.143933 1.083733,0.143933 0.5588,0 0.842433,-0.02963 0.982133,-0.105833 0.160867,-0.0889 0.232834,-0.232834 0.232834,-0.474134 0,-0.385233 -0.182034,-0.554566 -0.630767,-0.5715 -0.2032,-0.0085 -0.770466,-0.02117 -0.9017,-0.01693 -0.4699,0.0085 -0.5842,-0.04233 -0.5842,-0.258233 0,-0.1016 0.02963,-0.173567 0.0889,-0.2159 0.0889,-0.06773 0.347134,-0.09737 0.783167,-0.09737 0.465666,0 0.6985,0.03387 0.783166,0.122767 0.04657,0.04233 0.05927,0.09313 0.05927,0.237066 h 0.3302 c 0,-0.232833 -0.01693,-0.296333 -0.0889,-0.385233 -0.143933,-0.186267 -0.410633,-0.245533 -1.071033,-0.245533 -0.575733,0 -0.867833,0.0381 -1.007533,0.127 -0.1397,0.09313 -0.207434,0.2413 -0.207434,0.452966 0,0.3937 0.182034,0.5334 0.6985,0.541867 0.7493,0.0085 0.8128,0.0085 0.897467,0.0085 0.3937,-0.0042 0.5207,0.07197 0.5207,0.3048 0,0.09737 -0.0254,0.1651 -0.08467,0.211666 -0.09313,0.0762 -0.245533,0.09313 -0.7874,0.09313 -0.880533,0 -0.948266,-0.0254 -0.944033,-0.381 l -0.0042,-0.05503 z"
         style="font-style:normal;font-variant:normal;font-weight:500;font-stretch:normal;font-family:'Microgramma D Extended';-inkscape-font-specification:'Microgramma D Extended Medium';stroke-width:0.26458332px"
         id="path229" />
      <path
         inkscape:connector-curvature="0"
         d="m 82.186452,87.355779 v -0.0254 c 0.0042,-0.270933 0.122767,-0.3175 0.795867,-0.3175 0.512233,0 0.690033,0.0381 0.8001,0.173567 0.07197,0.08467 0.09313,0.169333 0.09313,0.372533 v 0.211667 h -0.0254 c -0.135466,-0.186267 -0.270933,-0.211667 -1.075266,-0.211667 -0.414867,0 -0.601134,0.01693 -0.719667,0.0635 -0.2032,0.0762 -0.2794,0.2286 -0.2794,0.537633 0,0.237067 0.04233,0.3556 0.169333,0.4572 0.143934,0.110067 0.3302,0.135467 1.032934,0.135467 0.5969,0 0.740833,-0.04233 0.889,-0.254 h 0.0127 l -0.0042,0.2286 h 0.309034 v -1.032933 c 0,-0.465667 -0.02963,-0.5969 -0.1651,-0.732367 -0.1651,-0.173567 -0.3937,-0.220133 -1.058334,-0.220133 -0.8509,0 -1.100666,0.118533 -1.100666,0.529166 v 0.08467 z m 0.791634,0.478367 c 0.690033,0 0.8763,0.06773 0.8763,0.321733 0,0.262467 -0.156634,0.325967 -0.8128,0.325967 -0.4826,0 -0.694267,-0.0127 -0.783167,-0.0508 -0.110067,-0.04657 -0.1524,-0.122767 -0.1524,-0.2667 0,-0.127 0.0381,-0.211667 0.1143,-0.262467 0.0889,-0.05503 0.237067,-0.06773 0.757767,-0.06773 z"
         style="font-style:normal;font-variant:normal;font-weight:500;font-stretch:normal;font-family:'Microgramma D Extended';-inkscape-font-specification:'Microgramma D Extended Medium';stroke-width:0.26458332px"
         id="path231" />
      <path
         inkscape:connector-curvature="0"
         d="m 84.51419,86.767346 v 1.960033 h 0.309033 v -0.905933 c 0,-0.690034 0.131233,-0.808567 0.8763,-0.808567 0.4826,0 0.588433,0.0889 0.588433,0.4953 v 0.1397 h 0.3175 v -0.2032 c 0,-0.254 -0.06773,-0.440267 -0.198967,-0.554567 -0.131233,-0.1143 -0.287866,-0.148166 -0.673099,-0.148166 -0.372534,0 -0.537634,0.01693 -0.656167,0.0762 -0.105833,0.0508 -0.182033,0.118533 -0.232833,0.211666 h -0.02117 v -0.262466 z"
         style="font-style:normal;font-variant:normal;font-weight:500;font-stretch:normal;font-family:'Microgramma D Extended';-inkscape-font-specification:'Microgramma D Extended Medium';stroke-width:0.26458332px"
         id="path233" />
      <path
         inkscape:connector-curvature="0"
         d="m 86.821027,86.767346 v 1.960033 h 0.309033 v -0.905933 c 0,-0.372534 0.01693,-0.465667 0.1143,-0.579967 0.135467,-0.1651 0.381,-0.2286 0.8636,-0.2286 0.427567,0 0.6223,0.04657 0.7239,0.169333 0.0889,0.1016 0.110067,0.220134 0.110067,0.5715 v 0.973667 h 0.309033 v -1.1049 c 0,-0.3683 -0.04233,-0.5334 -0.160867,-0.664633 -0.1524,-0.1651 -0.385233,-0.2159 -0.948266,-0.2159 -0.643467,0 -0.859367,0.06773 -0.986367,0.321733 h -0.0254 v -0.296333 z"
         style="font-style:normal;font-variant:normal;font-weight:500;font-stretch:normal;font-family:'Microgramma D Extended';-inkscape-font-specification:'Microgramma D Extended Medium';stroke-width:0.26458332px"
         id="path235" />
      <path
         inkscape:connector-curvature="0"
         d="m 90.734281,86.741946 c -0.4445,0 -0.664634,0.02963 -0.8255,0.1143 -0.258234,0.135466 -0.376767,0.414866 -0.376767,0.880533 0,0.4826 0.09737,0.732367 0.347133,0.8763 0.1778,0.105833 0.4191,0.1397 0.994834,0.1397 0.499533,0 0.719666,-0.02963 0.889,-0.127 0.245533,-0.1397 0.351366,-0.4064 0.351366,-0.880533 0,-0.4572 -0.09737,-0.7112 -0.334433,-0.8636 -0.169333,-0.105834 -0.410633,-0.1397 -1.045633,-0.1397 z m 0.0508,0.270933 c 0.397933,0 0.6096,0.02117 0.728133,0.0762 0.198967,0.0889 0.270933,0.262467 0.270933,0.6477 0,0.3429 -0.0508,0.516467 -0.1778,0.618067 -0.127,0.09737 -0.300566,0.127 -0.757766,0.127 -0.364067,0 -0.550334,-0.01693 -0.677334,-0.0635 -0.2286,-0.08043 -0.309033,-0.254 -0.309033,-0.6604 0,-0.630767 0.1397,-0.745067 0.922867,-0.745067 z"
         style="font-style:normal;font-variant:normal;font-weight:500;font-stretch:normal;font-family:'Microgramma D Extended';-inkscape-font-specification:'Microgramma D Extended Medium';stroke-width:0.26458332px"
         id="path237" />
      <path
         inkscape:connector-curvature="0"
         d="m 92.211383,87.034046 h 0.440267 v 1.693333 h 0.309033 v -1.693333 h 0.9906 v -0.2667 H 92.96915 l 0.0042,-0.06773 c 0,-0.4445 0.0889,-0.516466 0.643467,-0.524933 l 0.334433,-0.0127 v -0.2667 l -0.3556,0.0127 c -0.7747,0.01693 -0.944033,0.173567 -0.944033,0.859367 H 92.21135 Z"
         style="font-style:normal;font-variant:normal;font-weight:500;font-stretch:normal;font-family:'Microgramma D Extended';-inkscape-font-specification:'Microgramma D Extended Medium';stroke-width:0.26458332px"
         id="path239" />
      <path
         inkscape:connector-curvature="0"
         d="m 94.055198,87.034046 h 0.440267 v 1.693333 h 0.309033 v -1.693333 h 0.9906 v -0.2667 h -0.982133 l 0.0042,-0.06773 c 0,-0.4445 0.0889,-0.516466 0.643466,-0.524933 l 0.334434,-0.0127 v -0.2667 l -0.3556,0.0127 c -0.7747,0.01693 -0.944033,0.173567 -0.944033,0.859367 h -0.440267 z"
         style="font-style:normal;font-variant:normal;font-weight:500;font-stretch:normal;font-family:'Microgramma D Extended';-inkscape-font-specification:'Microgramma D Extended Medium';stroke-width:0.26458332px"
         id="path241" />
    </g>
    <g
       transform="translate(-48.19644,-10.223535)"
       aria-label="october 28, 2017"
       style="font-style:normal;font-variant:normal;font-weight:normal;font-stretch:normal;font-size:4.23333311px;line-height:125%;font-family:'Microgramma D Extended';-inkscape-font-specification:'Microgramma D Extended';letter-spacing:0px;word-spacing:0px;fill:#000000;fill-opacity:1;stroke:none;stroke-width:0.26458332px;stroke-linecap:butt;stroke-linejoin:miter;stroke-opacity:1"
       id="text203">
      <path
         inkscape:connector-curvature="0"
         d="m 147.4503,86.707247 c -0.4445,0 -0.66463,0.02963 -0.8255,0.1143 -0.25823,0.135467 -0.37677,0.414867 -0.37677,0.880533 0,0.4826 0.0974,0.732367 0.34714,0.8763 0.1778,0.105834 0.4191,0.1397 0.99483,0.1397 0.49953,0 0.71967,-0.02963 0.889,-0.127 0.24553,-0.1397 0.35137,-0.4064 0.35137,-0.880533 0,-0.4572 -0.0974,-0.7112 -0.33444,-0.8636 -0.16933,-0.105833 -0.41063,-0.1397 -1.04563,-0.1397 z m 0.0508,0.270933 c 0.39793,0 0.6096,0.02117 0.72813,0.0762 0.19897,0.0889 0.27094,0.262467 0.27094,0.6477 0,0.3429 -0.0508,0.516467 -0.1778,0.618067 -0.127,0.09737 -0.30057,0.127 -0.75777,0.127 -0.36407,0 -0.55033,-0.01693 -0.67733,-0.0635 -0.2286,-0.08043 -0.30904,-0.254 -0.30904,-0.6604 0,-0.630767 0.1397,-0.745067 0.92287,-0.745067 z"
         style="stroke-width:0.26458332px"
         id="path267" />
      <path
         inkscape:connector-curvature="0"
         d="m 151.2261,87.98148 c -0.0127,0.381 -0.1524,0.461434 -0.7874,0.461434 -0.41063,0 -0.6477,-0.0254 -0.77046,-0.08467 -0.1778,-0.08043 -0.254,-0.270933 -0.254,-0.6223 0,-0.639233 0.1397,-0.757767 0.89746,-0.757767 0.71967,0 0.889,0.08467 0.89747,0.452967 h 0.32173 c -0.0127,-0.254 -0.055,-0.389467 -0.16933,-0.503767 -0.15664,-0.1651 -0.42334,-0.220133 -1.04987,-0.220133 -0.4699,0 -0.6985,0.03387 -0.86783,0.127 -0.24553,0.135467 -0.35983,0.410633 -0.35983,0.880533 0,0.4064 0.0889,0.668867 0.27093,0.817034 0.17357,0.143933 0.4445,0.186266 1.143,0.186266 0.508,0 0.72813,-0.05503 0.88053,-0.2159 0.1143,-0.118533 0.16087,-0.258233 0.1651,-0.5207 z"
         style="stroke-width:0.26458332px"
         id="path269" />
      <path
         inkscape:connector-curvature="0"
         d="m 152.11411,86.245814 v 0.486833 h -0.4826 v 0.2667 h 0.4826 v 0.948267 c 0,0.309033 0.0254,0.4318 0.11007,0.550333 0.1143,0.156633 0.33866,0.220133 0.75776,0.220133 0.41487,0 0.62654,-0.06773 0.74084,-0.2413 0.0804,-0.118533 0.10583,-0.245533 0.10583,-0.550333 V 87.80368 h -0.30903 v 0.122767 c 0,0.2413 -0.0127,0.313267 -0.0593,0.385233 -0.0677,0.105834 -0.17357,0.135467 -0.44873,0.135467 -0.29634,0 -0.43604,-0.0381 -0.51647,-0.135467 -0.0635,-0.08043 -0.0635,-0.09313 -0.072,-0.465666 v -0.846667 h 1.3716 v -0.2667 h -1.3716 v -0.486833 z"
         style="stroke-width:0.26458332px"
         id="path271" />
      <path
         inkscape:connector-curvature="0"
         d="m 155.24724,86.707247 c -0.4445,0 -0.66463,0.02963 -0.8255,0.1143 -0.25823,0.135467 -0.37677,0.414867 -0.37677,0.880533 0,0.4826 0.0974,0.732367 0.34714,0.8763 0.1778,0.105834 0.4191,0.1397 0.99483,0.1397 0.49953,0 0.71967,-0.02963 0.889,-0.127 0.24553,-0.1397 0.35137,-0.4064 0.35137,-0.880533 0,-0.4572 -0.0974,-0.7112 -0.33444,-0.8636 -0.16933,-0.105833 -0.41063,-0.1397 -1.04563,-0.1397 z m 0.0508,0.270933 c 0.39793,0 0.6096,0.02117 0.72813,0.0762 0.19897,0.0889 0.27094,0.262467 0.27094,0.6477 0,0.3429 -0.0508,0.516467 -0.1778,0.618067 -0.127,0.09737 -0.30057,0.127 -0.75777,0.127 -0.36407,0 -0.55033,-0.01693 -0.67733,-0.0635 -0.2286,-0.08043 -0.30904,-0.254 -0.30904,-0.6604 0,-0.630767 0.1397,-0.745067 0.92287,-0.745067 z"
         style="stroke-width:0.26458332px"
         id="path273" />
      <path
         inkscape:connector-curvature="0"
         d="m 156.93601,85.869047 v 2.823633 h 0.3048 v -0.249766 h 0.0169 c 0.14817,0.2286 0.30903,0.275166 0.93133,0.275166 0.4826,0 0.68157,-0.02117 0.84244,-0.08467 0.31326,-0.127 0.4445,-0.389467 0.4445,-0.893234 0,-0.461433 -0.0847,-0.702733 -0.29634,-0.867833 -0.1778,-0.135467 -0.37676,-0.169333 -1.0414,-0.169333 -0.5588,0 -0.73236,0.0508 -0.87206,0.262466 h -0.0212 v -1.096433 z m 1.2065,1.1049 c 0.41063,0 0.61806,0.02117 0.7366,0.0762 0.1905,0.0889 0.2667,0.275167 0.2667,0.668867 0,0.5969 -0.1524,0.728133 -0.84667,0.728133 -0.45297,0 -0.6858,-0.02117 -0.80433,-0.08043 -0.19474,-0.0889 -0.25824,-0.249767 -0.25824,-0.651934 0,-0.630766 0.13547,-0.740833 0.90594,-0.740833 z"
         style="stroke-width:0.26458332px"
         id="path275" />
      <path
         inkscape:connector-curvature="0"
         d="m 161.92215,88.087314 c -0.0127,0.127 -0.0212,0.160866 -0.072,0.211666 -0.1016,0.1143 -0.27517,0.148167 -0.71967,0.148167 -0.58843,0 -0.8001,-0.0381 -0.91863,-0.160867 -0.0931,-0.09737 -0.13547,-0.249766 -0.14393,-0.503766 h 2.1844 c -0.008,-0.465667 -0.0508,-0.643467 -0.19897,-0.817034 -0.18203,-0.2032 -0.41487,-0.258233 -1.0922,-0.258233 -0.47413,0 -0.6985,0.02963 -0.85937,0.118533 -0.254,0.1397 -0.3683,0.414867 -0.3683,0.893234 0,0.402166 0.0931,0.6731 0.2794,0.817033 0.17357,0.135467 0.47414,0.182033 1.15147,0.182033 0.79587,0 1.07103,-0.160866 1.08373,-0.630766 z m -1.84574,-0.5715 c 0.0339,-0.436034 0.19897,-0.537634 0.8763,-0.537634 0.762,0 0.9525,0.105834 0.95674,0.537634 z"
         style="stroke-width:0.26458332px"
         id="path277" />
      <path
         inkscape:connector-curvature="0"
         d="m 162.52917,86.732647 v 1.960033 h 0.30903 v -0.905933 c 0,-0.690033 0.13123,-0.808567 0.8763,-0.808567 0.4826,0 0.58843,0.0889 0.58843,0.4953 v 0.1397 h 0.3175 v -0.2032 c 0,-0.254 -0.0677,-0.440266 -0.19896,-0.554566 -0.13124,-0.1143 -0.28787,-0.148167 -0.6731,-0.148167 -0.37254,0 -0.53764,0.01693 -0.65617,0.0762 -0.10583,0.0508 -0.18203,0.118533 -0.23283,0.211667 h -0.0212 v -0.262467 z"
         style="stroke-width:0.26458332px"
         id="path279" />
      <path
         inkscape:connector-curvature="0"
         d="m 169.01933,88.370947 h -2.7559 v -0.09737 c 0,-0.465666 0.0974,-0.554566 0.635,-0.588433 1.4605,-0.0762 1.66793,-0.110067 1.88807,-0.300567 0.15663,-0.1397 0.21166,-0.3048 0.21166,-0.651933 0,-0.182033 -0.0212,-0.3556 -0.0593,-0.448733 -0.072,-0.186267 -0.24977,-0.325967 -0.47414,-0.364067 -0.1778,-0.02963 -0.77046,-0.0635 -1.1684,-0.0635 -0.28786,0 -0.5842,0.01693 -0.7493,0.04233 -0.23283,0.0381 -0.37253,0.110066 -0.48683,0.253999 -0.12277,0.1524 -0.14817,0.2921 -0.14817,0.795867 h 0.35984 c 0,-0.283633 0.004,-0.351367 0.0169,-0.414867 0.0254,-0.160866 0.1016,-0.2413 0.26247,-0.2794 0.13546,-0.03387 0.55456,-0.0635 0.90593,-0.0635 0.50377,0 0.8509,0.03387 0.98637,0.09737 0.14393,0.06773 0.20743,0.2159 0.20743,0.486833 0,0.232834 -0.0593,0.364067 -0.2032,0.436034 -0.127,0.05927 -0.29633,0.08043 -0.95673,0.118533 -0.9144,0.05503 -1.04564,0.07197 -1.23614,0.1651 -0.27516,0.135467 -0.36406,0.351367 -0.36406,0.893233 0,0.09737 0.004,0.198967 0.008,0.3048 h 3.11997 z"
         style="stroke-width:0.26458332px"
         id="path281" />
      <path
         inkscape:connector-curvature="0"
         d="m 172.135,87.223714 c 0.127,-0.0381 0.1651,-0.05927 0.21166,-0.09313 0.11854,-0.0889 0.17357,-0.254 0.17357,-0.516466 0,-0.287867 -0.0593,-0.461434 -0.20743,-0.588434 -0.16087,-0.139699 -0.37254,-0.165099 -1.44357,-0.165099 -0.64347,0 -0.96943,0.02963 -1.1303,0.1016 -0.19897,0.09313 -0.2921,0.309033 -0.2921,0.677333 0,0.3683 0.10583,0.524933 0.4064,0.5842 -0.35137,0.08043 -0.44873,0.232833 -0.44873,0.706966 0,0.6731 0.19896,0.770467 1.55363,0.770467 1.38853,0 1.6129,-0.110067 1.6129,-0.8001 0,-0.440267 -0.0889,-0.579967 -0.43603,-0.677333 z m -1.27424,-1.032934 c 0.67734,0 1.03717,0.01693 1.12607,0.05503 0.11007,0.0508 0.15663,0.169333 0.15663,0.389466 0,0.2667 -0.0635,0.381 -0.23706,0.414867 -0.16087,0.03387 -0.3429,0.0381 -1.1303,0.0381 -0.889,0 -0.9525,-0.02963 -0.9525,-0.440267 0,-0.198966 0.0423,-0.325966 0.13123,-0.385233 0.0889,-0.05503 0.27517,-0.07197 0.90593,-0.07197 z m 0.13547,1.198034 c 1.1176,0 1.19803,0.03387 1.19803,0.491066 0,0.2286 -0.0254,0.3175 -0.11853,0.381 -0.10583,0.0762 -0.42757,0.110067 -1.07103,0.110067 -0.48684,0 -0.93134,-0.0254 -1.0414,-0.05927 -0.1397,-0.04657 -0.18204,-0.143933 -0.18204,-0.414866 0,-0.237067 0.0423,-0.3556 0.14817,-0.4191 0.11007,-0.0635 0.38947,-0.0889 1.0668,-0.0889 z"
         style="stroke-width:0.26458332px"
         id="path283" />
      <path
         inkscape:connector-curvature="0"
         d="m 173.0705,88.218547 v 0.474133 h 0.17356 v 0.04657 c 0,0.160867 -0.0423,0.232833 -0.13546,0.232833 h -0.0889 v 0.245534 h 0.0762 c 0.14816,0 0.28786,-0.04657 0.35136,-0.118534 0.0635,-0.07197 0.0847,-0.173566 0.0847,-0.4064 V 88.21855 Z"
         style="stroke-width:0.26458332px"
         id="path285" />
      <path
         inkscape:connector-curvature="0"
         d="m 178.19706,88.370947 h -2.7559 v -0.09737 c 0,-0.465666 0.0974,-0.554566 0.635,-0.588433 1.4605,-0.0762 1.66794,-0.110067 1.88807,-0.300567 0.15663,-0.1397 0.21167,-0.3048 0.21167,-0.651933 0,-0.182033 -0.0212,-0.3556 -0.0593,-0.448733 -0.072,-0.186267 -0.24977,-0.325967 -0.47413,-0.364067 -0.1778,-0.02963 -0.77047,-0.0635 -1.1684,-0.0635 -0.28787,0 -0.5842,0.01693 -0.7493,0.04233 -0.23284,0.0381 -0.37254,0.110066 -0.48684,0.253999 -0.12276,0.1524 -0.14816,0.2921 -0.14816,0.795867 h 0.35983 c 0,-0.283633 0.004,-0.351367 0.0169,-0.414867 0.0254,-0.160866 0.1016,-0.2413 0.26247,-0.2794 0.13547,-0.03387 0.55457,-0.0635 0.90593,-0.0635 0.50377,0 0.8509,0.03387 0.98637,0.09737 0.14393,0.06773 0.20743,0.2159 0.20743,0.486833 0,0.232834 -0.0593,0.364067 -0.2032,0.436034 -0.127,0.05927 -0.29633,0.08043 -0.95673,0.118533 -0.9144,0.05503 -1.04563,0.07197 -1.23613,0.1651 -0.27517,0.135467 -0.36407,0.351367 -0.36407,0.893233 0,0.09737 0.004,0.198967 0.008,0.3048 h 3.11996 z"
         style="stroke-width:0.26458332px"
         id="path287" />
      <path
         inkscape:connector-curvature="0"
         d="m 180.07236,85.860581 c -0.5207,0 -0.82126,0.02117 -1.03293,0.08043 -0.23283,0.05927 -0.381,0.224366 -0.4318,0.478366 -0.0381,0.198967 -0.0635,0.516467 -0.0635,0.867834 0,0.728133 0.0466,0.9906 0.21167,1.164166 0.17356,0.186267 0.52493,0.249767 1.36313,0.249767 0.2159,0 0.57573,-0.0085 0.7366,-0.02117 0.40217,-0.0254 0.57573,-0.0762 0.70273,-0.2032 0.1651,-0.1651 0.2286,-0.508 0.2286,-1.261533 0,-0.372533 -0.0169,-0.626533 -0.0508,-0.8001 -0.055,-0.254 -0.23706,-0.436033 -0.49953,-0.486833 -0.2159,-0.04233 -0.6223,-0.06773 -1.16417,-0.06773 z m 0.0127,0.330199 c 0.82974,0 1.09644,0.03387 1.20227,0.148167 0.0889,0.1016 0.13123,0.414867 0.13123,1.007533 0,0.491067 -0.0466,0.778934 -0.14816,0.8763 -0.10584,0.105834 -0.42757,0.148167 -1.15994,0.148167 -0.63076,0 -0.96096,-0.04657 -1.06256,-0.156633 -0.0931,-0.09313 -0.13547,-0.376767 -0.13547,-0.884767 0,-0.1524 0.0127,-0.4318 0.0254,-0.575733 0.0212,-0.249767 0.055,-0.359834 0.12277,-0.427567 0.1016,-0.1016 0.35983,-0.135467 1.02446,-0.135467 z"
         style="stroke-width:0.26458332px"
         id="path289" />
      <path
         inkscape:connector-curvature="0"
         d="m 183.34639,85.869047 -1.0033,0.9525 0.22436,0.254 0.91017,-0.855133 h 0.13123 v 2.472266 h 0.3683 v -2.823633 z"
         style="stroke-width:0.26458332px"
         id="path291" />
      <path
         inkscape:connector-curvature="0"
         d="m 184.83704,85.869047 v 0.321733 h 2.73897 v 0.1016 l -2.12937,2.4003 h 0.49107 l 2.01507,-2.277533 v -0.5461 z"
         style="stroke-width:0.26458332px"
         id="path293" />
    </g>
    <g
       transform="translate(-48.19644,-10.223535)"
       aria-label="five volts dc"
       style="font-style:normal;font-variant:normal;font-weight:normal;font-stretch:normal;font-size:4.93888855px;line-height:125%;font-family:'Microgramma D Extended';-inkscape-font-specification:'Microgramma D Extended';letter-spacing:0px;word-spacing:0px;fill:#000000;fill-opacity:1;stroke:none;stroke-width:0.26458332px;stroke-linecap:butt;stroke-linejoin:miter;stroke-opacity:1"
       id="text207">
      <path
         inkscape:connector-curvature="0"
         d="m 107.36164,78.969452 h 0.51364 v 1.975555 h 0.36054 v -1.975555 h 1.1557 v -0.31115 h -1.14582 l 0.005,-0.07902 c 0,-0.518584 0.10371,-0.602545 0.75071,-0.612422 l 0.39017,-0.01482 v -0.31115 l -0.41487,0.01482 c -0.90381,0.01975 -1.10137,0.202494 -1.10137,1.002594 h -0.51364 z"
         style="stroke-width:0.26458332px"
         id="path244" />
      <path
         inkscape:connector-curvature="0"
         d="m 109.64394,78.658302 v 2.286705 h 0.36054 v -2.286705 z m 0,-1.007533 v 0.429683 h 0.36054 v -0.429683 z"
         style="stroke-width:0.26458332px"
         id="path246" />
      <path
         inkscape:connector-curvature="0"
         d="m 110.15836,78.658302 1.31868,2.286705 h 0.4692 l 1.3335,-2.286705 h -0.43956 l -1.11125,1.950861 h -0.0395 l -1.10632,-1.950861 z"
         style="stroke-width:0.26458332px"
         id="path248" />
      <path
         inkscape:connector-curvature="0"
         d="m 115.86625,80.238746 c -0.0148,0.148167 -0.0247,0.187678 -0.084,0.246945 -0.11854,0.13335 -0.32103,0.172861 -0.83961,0.172861 -0.68651,0 -0.93345,-0.04445 -1.07174,-0.187678 -0.10866,-0.113594 -0.15805,-0.291394 -0.16792,-0.587728 h 2.54846 c -0.01,-0.543277 -0.0593,-0.750711 -0.23213,-0.953205 -0.21237,-0.237067 -0.48401,-0.301272 -1.27423,-0.301272 -0.55315,0 -0.81492,0.03457 -1.00259,0.138288 -0.29634,0.162984 -0.42969,0.484012 -0.42969,1.042106 0,0.469194 0.10866,0.785283 0.32597,0.953205 0.20249,0.158045 0.55316,0.212373 1.34338,0.212373 0.92851,0 1.24954,-0.187678 1.26435,-0.735895 z m -2.15336,-0.66675 c 0.0395,-0.508705 0.23213,-0.627239 1.02235,-0.627239 0.889,0 1.11125,0.123473 1.11619,0.627239 z"
         style="stroke-width:0.26458332px"
         id="path250" />
      <path
         inkscape:connector-curvature="0"
         d="m 117.5474,78.658302 1.31868,2.286705 h 0.4692 l 1.3335,-2.286705 h -0.43956 l -1.11125,1.950861 h -0.0395 l -1.10632,-1.950861 z"
         style="stroke-width:0.26458332px"
         id="path252" />
      <path
         inkscape:connector-curvature="0"
         d="m 122.10453,78.628669 c -0.51858,0 -0.77541,0.03457 -0.96308,0.13335 -0.30128,0.158044 -0.43957,0.484011 -0.43957,1.027288 0,0.563034 0.1136,0.854428 0.40499,1.02235 0.20744,0.123473 0.48895,0.162984 1.16064,0.162984 0.58279,0 0.83961,-0.03457 1.03717,-0.148167 0.28645,-0.162983 0.40993,-0.474133 0.40993,-1.027289 0,-0.5334 -0.1136,-0.829733 -0.39018,-1.007533 -0.19755,-0.123472 -0.47907,-0.162983 -1.2199,-0.162983 z m 0.0593,0.316088 c 0.46425,0 0.7112,0.0247 0.84948,0.0889 0.23213,0.103717 0.31609,0.306212 0.31609,0.75565 0,0.40005 -0.0593,0.602545 -0.20743,0.721078 -0.14817,0.113595 -0.35066,0.148167 -0.88406,0.148167 -0.42475,0 -0.64206,-0.01976 -0.79022,-0.07408 -0.2667,-0.09384 -0.36054,-0.296333 -0.36054,-0.770466 0,-0.735895 0.16298,-0.869245 1.07668,-0.869245 z"
         style="stroke-width:0.26458332px"
         id="path254" />
      <path
         inkscape:connector-curvature="0"
         d="m 124.07476,77.650769 v 3.294238 h 0.36054 v -3.294238 z"
         style="stroke-width:0.26458332px"
         id="path256" />
      <path
         inkscape:connector-curvature="0"
         d="m 125.2016,78.09033 v 0.567972 h -0.56304 v 0.31115 h 0.56304 v 1.106311 c 0,0.360539 0.0296,0.503767 0.12841,0.642055 0.13335,0.182739 0.39511,0.256823 0.88406,0.256823 0.48401,0 0.73096,-0.07902 0.86431,-0.281517 0.0938,-0.138289 0.12347,-0.286456 0.12347,-0.642056 v -0.143227 h -0.36054 v 0.143227 c 0,0.281517 -0.0148,0.365478 -0.0691,0.449439 -0.079,0.123473 -0.20249,0.158045 -0.52352,0.158045 -0.34572,0 -0.5087,-0.04445 -0.60254,-0.158045 -0.0741,-0.09384 -0.0741,-0.108655 -0.084,-0.543277 v -0.987778 h 1.6002 v -0.31115 h -1.6002 V 78.09033 Z"
         style="stroke-width:0.26458332px"
         id="path258" />
      <path
         inkscape:connector-curvature="0"
         d="m 127.40087,80.149846 v 0.118534 c 0,0.281516 0.0543,0.424744 0.21237,0.538338 0.17286,0.128412 0.48401,0.167923 1.26436,0.167923 0.65193,0 0.98284,-0.03457 1.14582,-0.123473 0.18768,-0.103716 0.27164,-0.271638 0.27164,-0.553155 0,-0.449439 -0.21237,-0.646994 -0.7359,-0.66675 -0.23706,-0.0099 -0.89887,-0.02469 -1.05198,-0.01976 -0.54822,0.0099 -0.68157,-0.04939 -0.68157,-0.301272 0,-0.118533 0.0346,-0.202494 0.10372,-0.251883 0.10372,-0.07902 0.40499,-0.113595 0.91369,-0.113595 0.54328,0 0.81492,0.03951 0.9137,0.143228 0.0543,0.04939 0.0691,0.108656 0.0691,0.276578 h 0.38524 c 0,-0.271639 -0.0198,-0.345722 -0.10372,-0.449439 -0.16792,-0.217311 -0.47907,-0.286455 -1.24954,-0.286455 -0.67169,0 -1.01247,0.04445 -1.17545,0.148166 -0.16299,0.108656 -0.24201,0.281517 -0.24201,0.528461 0,0.459317 0.21237,0.6223 0.81492,0.632178 0.87418,0.0099 0.94826,0.0099 1.04704,0.0099 0.45932,-0.0049 0.60748,0.08396 0.60748,0.3556 0,0.113594 -0.0296,0.192616 -0.0988,0.246944 -0.10866,0.0889 -0.28646,0.108656 -0.91864,0.108656 -1.02729,0 -1.10631,-0.02963 -1.10137,-0.4445 l -0.005,-0.06421 z"
         style="stroke-width:0.26458332px"
         id="path260" />
      <path
         inkscape:connector-curvature="0"
         d="m 134.76807,77.650769 h -0.36054 v 1.279172 h -0.0247 c -0.15805,-0.242006 -0.37042,-0.306211 -1.0026,-0.306211 -0.6865,0 -0.96802,0.03457 -1.1557,0.143227 -0.29139,0.167923 -0.4198,0.48895 -0.4198,1.042106 0,0.538339 0.10865,0.819855 0.38029,0.997655 0.2025,0.128412 0.4692,0.167923 1.10631,0.167923 0.7359,0 0.92851,-0.05433 1.10137,-0.321028 h 0.0198 v 0.291394 h 0.3556 z m -1.41746,1.28905 c 0.91369,0 1.07174,0.13335 1.07174,0.884061 0,0.380294 -0.0642,0.57785 -0.22719,0.696383 -0.14323,0.103717 -0.38523,0.138289 -0.96308,0.138289 -0.86925,0 -1.04211,-0.138289 -1.04211,-0.849489 0,-0.404989 0.0642,-0.612422 0.22719,-0.730956 0.14323,-0.103716 0.37042,-0.138288 0.93345,-0.138288 z"
         style="stroke-width:0.26458332px"
         id="path262" />
      <path
         inkscape:connector-curvature="0"
         d="m 137.63178,80.115274 c -0.0148,0.4445 -0.1778,0.538339 -0.91864,0.538339 -0.47907,0 -0.75565,-0.02963 -0.89887,-0.09878 -0.20744,-0.09384 -0.29634,-0.316089 -0.29634,-0.726016 0,-0.745773 0.16299,-0.884062 1.04705,-0.884062 0.83961,0 1.03716,0.09878 1.04704,0.528462 h 0.37536 c -0.0148,-0.296334 -0.0642,-0.454378 -0.19756,-0.587728 -0.18274,-0.192617 -0.49389,-0.256822 -1.22484,-0.256822 -0.54822,0 -0.81492,0.03951 -1.01247,0.148166 -0.28646,0.158045 -0.41981,0.479072 -0.41981,1.027289 0,0.474133 0.10372,0.780344 0.31609,0.953206 0.20249,0.167922 0.51858,0.217311 1.3335,0.217311 0.59267,0 0.84949,-0.06421 1.02729,-0.251884 0.13335,-0.138289 0.18768,-0.301272 0.19261,-0.607483 z"
         style="stroke-width:0.26458332px"
         id="path264" />
    </g>
    <rect
       style="opacity:1;fill:#000080;fill-opacity:1;fill-rule:nonzero;stroke:none;stroke-width:0.1778;stroke-linecap:square;stroke-linejoin:miter;stroke-miterlimit:4;stroke-dasharray:none;stroke-dashoffset:0;stroke-opacity:1;paint-order:fill markers stroke"
       id="rect67"
       width="58.419998"
       height="20.32"
       x="10.985384"
       y="115.902" />
    <rect
       y="115.902"
       x="79.565392"
       height="20.32"
       width="58.419998"
       id="rect73"
       style="opacity:1;fill:#000080;fill-opacity:1;fill-rule:nonzero;stroke:none;stroke-width:0.1778;stroke-linecap:square;stroke-linejoin:miter;stroke-miterlimit:4;stroke-dasharray:none;stroke-dashoffset:0;stroke-opacity:1;paint-order:fill markers stroke" />
    <path
       inkscape:connector-curvature="0"
       id="path896"
       style="color:#000000;font-style:normal;font-variant:normal;font-weight:normal;font-stretch:normal;font-size:medium;line-height:normal;font-family:sans-serif;font-variant-ligatures:normal;font-variant-position:normal;font-variant-caps:normal;font-variant-numeric:normal;font-variant-alternates:normal;font-feature-settings:normal;text-indent:0;text-align:start;text-decoration:none;text-decoration-line:none;text-decoration-style:solid;text-decoration-color:#000000;letter-spacing:normal;word-spacing:normal;text-transform:none;writing-mode:lr-tb;direction:ltr;text-orientation:mixed;dominant-baseline:auto;baseline-shift:baseline;text-anchor:start;white-space:normal;shape-padding:0;clip-rule:nonzero;display:inline;overflow:visible;visibility:visible;opacity:1;isolation:auto;mix-blend-mode:normal;color-interpolation:sRGB;color-interpolation-filters:linearRGB;solid-color:#000000;solid-opacity:1;vector-effect:none;fill:#fc0000;fill-opacity:1;fill-rule:nonzero;stroke:none;stroke-width:0.50800002;stroke-linecap:square;stroke-linejoin:miter;stroke-miterlimit:4;stroke-dasharray:none;stroke-dashoffset:0;stroke-opacity:1;paint-order:fill markers stroke;color-rendering:auto;image-rendering:auto;shape-rendering:auto;text-rendering:auto;enable-background:accumulate"
       d="m 10.73163,133.42802 v 0.50781 h 0.25391 58.41992 0.25389 v -0.50781 H 69.40546 10.98554 Z m 0,-5.08008 v 0.50781 h 0.25391 58.41992 0.25389 v -0.50781 H 69.40546 10.98554 Z m 0,-5.08008 v 0.50781 h 0.25391 58.41992 0.25389 v -0.50781 H 69.40546 10.98554 Z m 0,-5.08008 v 0.50781 h 0.25391 58.41992 0.25389 v -0.50781 H 69.40546 10.98554 Z m 0,-2.53906 v 0.50781 h 0.25391 58.41992 0.25389 v -0.50781 H 69.40546 10.98554 Z m 0,5.08008 v 0.50781 h 0.25391 58.41992 0.25389 V 120.7288 H 69.40546 10.98554 Z m 0,5.08008 v 0.50781 h 0.25391 58.41992 0.25389 v -0.50781 H 69.40546 10.98554 Z m 0,5.08007 v 0.50782 h 0.25391 58.41992 0.25389 v -0.50782 H 69.40546 10.98554 Z m 0,5.07813 v 0.50976 h 0.25391 58.41992 0.25389 v -0.50976 H 69.40546 10.98554 Z" />
    <path
       inkscape:connector-curvature="0"
       id="path914"
       style="color:#000000;font-style:normal;font-variant:normal;font-weight:normal;font-stretch:normal;font-size:medium;line-height:normal;font-family:sans-serif;font-variant-ligatures:normal;font-variant-position:normal;font-variant-caps:normal;font-variant-numeric:normal;font-variant-alternates:normal;font-feature-settings:normal;text-indent:0;text-align:start;text-decoration:none;text-decoration-line:none;text-decoration-style:solid;text-decoration-color:#000000;letter-spacing:normal;word-spacing:normal;text-transform:none;writing-mode:lr-tb;direction:ltr;text-orientation:mixed;dominant-baseline:auto;baseline-shift:baseline;text-anchor:start;white-space:normal;shape-padding:0;clip-rule:nonzero;display:inline;overflow:visible;visibility:visible;opacity:1;isolation:auto;mix-blend-mode:normal;color-interpolation:sRGB;color-interpolation-filters:linearRGB;solid-color:#000000;solid-opacity:1;vector-effect:none;fill:#fc0000;fill-opacity:1;fill-rule:nonzero;stroke:none;stroke-width:0.50800002;stroke-linecap:square;stroke-linejoin:miter;stroke-miterlimit:4;stroke-dasharray:none;stroke-dashoffset:0;stroke-opacity:1;paint-order:fill markers stroke;color-rendering:auto;image-rendering:auto;shape-rendering:auto;text-rendering:auto;enable-background:accumulate"
       d="m 79.3117,133.42802 v 0.50781 h 0.2539 58.41993 0.2539 v -0.50781 h -0.2539 -58.41993 z m 0,-5.08008 v 0.50781 h 0.2539 58.41993 0.2539 v -0.50781 h -0.2539 -58.41993 z m 0,-5.08008 v 0.50781 h 0.2539 58.41993 0.2539 v -0.50781 h -0.2539 -58.41993 z m 0,-5.08008 v 0.50781 h 0.2539 58.41993 0.2539 v -0.50781 h -0.2539 -58.41993 z m 0,-2.53906 v 0.50781 h 0.2539 58.41993 0.2539 v -0.50781 h -0.2539 -58.41993 z m 0,5.08008 v 0.50781 h 0.2539 58.41993 0.2539 v -0.50781 h -0.2539 -58.41993 z m 0,5.08008 v 0.50781 h 0.2539 58.41993 0.2539 v -0.50781 h -0.2539 -58.41993 z m 0,5.08007 v 0.50782 h 0.2539 58.41993 0.2539 v -0.50782 h -0.2539 -58.41993 z m 0,5.07813 v 0.50976 h 0.2539 58.41993 0.2539 v -0.50976 h -0.2539 -58.41993 z" />
    <path
       inkscape:connector-curvature="0"
       style="opacity:1;fill:#ff0000;fill-opacity:1;fill-rule:nonzero;stroke:none;stroke-width:0.26458332;stroke-linecap:square;stroke-linejoin:miter;stroke-miterlimit:4;stroke-dasharray:none;stroke-dashoffset:0;stroke-opacity:1"
       d="m 2.54,5.7578218 v 0.0155 0.0646 2.5801999 H 5.84058 V 10.701192 H 2.54 v 2.63291 h 3.30058 v 2.31252 H 2.54 v 2.65204 h 3.30058 v 2.29288 H 2.54 v 2.63085 h 3.30058 v 2.31252 H 2.54 v 2.63085 h 3.30058 v 2.2934 H 2.54 v 2.65203 h 3.30058 v 2.31459 H 2.54 v 2.63085 h 3.30058 v 2.28306 H 2.54 v 2.6603 h 3.38068 137.16009 3.38068 v -2.6603 h -3.30058 v -2.28306 h 3.30058 v -2.63085 h -3.30058 v -2.31459 h 3.30058 v -2.65203 h -3.30058 v -2.2934 h 3.30058 v -2.63085 h -3.30058 v -2.31252 h 3.30058 v -2.63085 h -3.30058 v -2.29288 h 3.30058 v -2.65204 h -3.30058 v -2.31252 h 3.30058 v -2.63291 h -3.30058 V 8.4181217 h 3.30058 V 5.7578218 H 143.08077 5.92068 Z"
       id="path955" />
    <path
       id="path335"
       d="m 153.16161,46.428794 v 0.0636 2.41742 H 149.86 v 2.59932 h 3.30161 v 2.34508 H 149.86 v 2.59933 h 3.30161 v 2.34507 H 149.86 v 2.599838 h 3.30161 v 2.34508 H 149.86 v 2.59932 h 3.30161 v 2.34508 H 149.86 v 2.59932 h 3.30161 v 2.34508 H 149.86 v 2.59933 h 3.30161 v 2.34559 H 149.86 v 2.59933 h 3.30161 v 2.46341 h 2.59984 v -3.30161 h 2.34508 v 3.30161 h 2.59932 v -3.30161 h 2.34508 v 3.30161 h 2.59933 v -3.30161 h 2.34507 v 3.30161 h 2.59933 v -3.30161 h 2.34507 v 3.30161 h 2.59984 v -3.30161 h 2.34508 v 3.30161 h 2.59932 v -3.30161 h 2.34508 v 3.30161 h 2.59933 v -3.30161 h 2.34507 v 3.30161 h 2.59933 v -3.30161 h 2.34507 v 3.30161 h 2.59984 v -3.30161 h 2.34508 v 3.30161 h 2.59933 v -3.30161 h 2.34507 v 3.30161 h 2.59933 v -2.4722 h 3.30212 v -2.59933 h -3.30212 v -2.34507 h 3.30212 v -2.59933 h -3.30212 v -2.34507 h 3.30212 v -2.59933 h -3.30212 v -2.34507 h 3.30212 v -2.59985 h -3.30212 v -2.34507 h 3.30212 v -2.599328 h -3.30212 v -2.34507 h 3.30212 v -2.59933 h -3.30212 v -2.34507 h 3.30212 v -2.59933 h -3.30212 v -2.47271 h -2.59933 v 3.30212 h -2.34507 v -3.30212 h -2.59933 v 3.30212 h -2.34508 v -3.30212 h -2.59984 v 3.30212 h -2.34507 v -3.30212 h -2.59933 v 3.30212 h -2.34507 v -3.30212 h -2.59933 v 3.30212 h -2.34508 v -3.30212 h -2.59932 v 3.30212 h -2.34508 v -3.30212 h -2.59984 v 3.30212 h -2.34507 v -3.30212 h -2.59933 v 3.30212 h -2.34507 v -3.30212 h -2.59933 v 3.30212 h -2.34508 v -3.30212 h -2.59932 v 3.30212 h -2.34508 v -3.30212 z"
       style="opacity:1;fill:#c87137;fill-opacity:1;fill-rule:nonzero;stroke:none;stroke-width:0.20320001;stroke-linecap:square;stroke-linejoin:miter;stroke-miterlimit:4;stroke-dasharray:none;stroke-dashoffset:0;stroke-opacity:1;paint-order:fill markers stroke"
       inkscape:connector-curvature="0" />
  </g>
</svg>
